<?xml version="1.0" encoding="UTF-8"?>
<svg width="14px" height="21px" viewBox="0 0 14 21" version="1.1" xmlns="http://www.w3.org/2000/svg" xmlns:xlink="http://www.w3.org/1999/xlink">
    <!-- Generator: Sketch 45.1 (43504) - http://www.bohemiancoding.com/sketch -->
    <title>Page 1 Copy 10</title>
    <desc>Created with Sketch.</desc>
    <defs></defs>
    <g id="chart" stroke="none" stroke-width="1" fill="none" fill-rule="evenodd">
        <g id="Page-1-Copy-10" stroke="#161616" stroke-width="1.52">
            <path d="M0.4379,13.0103 C2.1479,11.8053 3.3059,9.4843 3.3059,6.8153 C3.3059,4.1473 2.1479,1.8263 0.4379,0.6213" id="Stroke-1"></path>
            <path d="M12.9277,0.6212 C11.2177,1.8262 10.0597,4.1472 10.0597,6.8162 C10.0597,9.4842 11.2177,11.8052 12.9277,13.0102" id="Stroke-3"></path>
            <path d="M6.6828,0.0892 L6.6828,13.4772" id="Stroke-5"></path>
            <path d="M9.6115,16.7197 C9.6115,18.3367 8.3005,19.6487 6.6825,19.6487 C5.0655,19.6487 3.7545,18.3367 3.7545,16.7197 C3.7545,15.1027 5.0655,13.7907 6.6825,13.7907 C8.3005,13.7907 9.6115,15.1027 9.6115,16.7197 Z" id="Stroke-7"></path>
            <path d="M3.5972,6.574 L9.7682,6.574" id="Stroke-9"></path>
        </g>
    </g>
</svg>